<mxfile host="Electron" agent="Mozilla/5.0 (Windows NT 10.0; Win64; x64) AppleWebKit/537.36 (KHTML, like Gecko) draw.io/26.0.9 Chrome/128.0.6613.186 Electron/32.2.5 Safari/537.36" version="26.0.9">
  <diagram name="Seite-1" id="kbw9sWHFBJBSPmGbOEpc">
    <mxGraphModel dx="2049" dy="1366" grid="1" gridSize="10" guides="1" tooltips="1" connect="1" arrows="1" fold="1" page="1" pageScale="1" pageWidth="1169" pageHeight="827" math="0" shadow="0">
      <root>
        <mxCell id="0" />
        <mxCell id="1" parent="0" />
        <mxCell id="4lUtc1iOgKgDYd8cMn-Z-14" value="" style="rounded=1;whiteSpace=wrap;html=1;dashed=1;shadow=1;" vertex="1" parent="1">
          <mxGeometry x="250" y="70" width="600" height="350" as="geometry" />
        </mxCell>
        <mxCell id="4lUtc1iOgKgDYd8cMn-Z-1" value="&lt;font style=&quot;font-size: 22px;&quot;&gt;Kadai-Adapter&lt;br&gt;Kernel&lt;/font&gt;" style="rounded=1;whiteSpace=wrap;html=1;shadow=1;" vertex="1" parent="1">
          <mxGeometry x="460" y="120" width="180" height="260" as="geometry" />
        </mxCell>
        <mxCell id="4lUtc1iOgKgDYd8cMn-Z-2" value="&lt;font style=&quot;font-size: 18px;&quot;&gt;Camunda 7&lt;br&gt;Plugin&lt;/font&gt;" style="rounded=1;whiteSpace=wrap;html=1;shadow=1;" vertex="1" parent="1">
          <mxGeometry x="300" y="120" width="90" height="120" as="geometry" />
        </mxCell>
        <mxCell id="4lUtc1iOgKgDYd8cMn-Z-3" value="&lt;font style=&quot;font-size: 18px;&quot;&gt;Camunda 8&lt;br&gt;Plugin&lt;/font&gt;" style="rounded=1;whiteSpace=wrap;html=1;shadow=1;" vertex="1" parent="1">
          <mxGeometry x="300" y="260" width="90" height="120" as="geometry" />
        </mxCell>
        <mxCell id="4lUtc1iOgKgDYd8cMn-Z-5" style="edgeStyle=orthogonalEdgeStyle;rounded=0;orthogonalLoop=1;jettySize=auto;html=1;entryX=-0.009;entryY=0.23;entryDx=0;entryDy=0;entryPerimeter=0;" edge="1" parent="1" source="4lUtc1iOgKgDYd8cMn-Z-2" target="4lUtc1iOgKgDYd8cMn-Z-1">
          <mxGeometry relative="1" as="geometry" />
        </mxCell>
        <mxCell id="4lUtc1iOgKgDYd8cMn-Z-6" style="edgeStyle=orthogonalEdgeStyle;rounded=0;orthogonalLoop=1;jettySize=auto;html=1;entryX=-0.006;entryY=0.771;entryDx=0;entryDy=0;entryPerimeter=0;" edge="1" parent="1" source="4lUtc1iOgKgDYd8cMn-Z-3" target="4lUtc1iOgKgDYd8cMn-Z-1">
          <mxGeometry relative="1" as="geometry" />
        </mxCell>
        <mxCell id="4lUtc1iOgKgDYd8cMn-Z-7" value="&lt;span style=&quot;font-size: 18px;&quot;&gt;Your&lt;br&gt;Custom&lt;br&gt;Plugin&lt;br&gt;&lt;/span&gt;" style="rounded=1;whiteSpace=wrap;html=1;shadow=1;" vertex="1" parent="1">
          <mxGeometry x="710" y="120" width="90" height="120" as="geometry" />
        </mxCell>
        <mxCell id="4lUtc1iOgKgDYd8cMn-Z-8" value="&lt;span style=&quot;font-size: 18px;&quot;&gt;Another&lt;/span&gt;&lt;br style=&quot;font-size: 18px;&quot;&gt;&lt;span style=&quot;font-size: 18px;&quot;&gt;Plugin&lt;/span&gt;" style="rounded=1;whiteSpace=wrap;html=1;shadow=1;" vertex="1" parent="1">
          <mxGeometry x="710" y="260" width="90" height="120" as="geometry" />
        </mxCell>
        <mxCell id="4lUtc1iOgKgDYd8cMn-Z-11" style="edgeStyle=orthogonalEdgeStyle;rounded=0;orthogonalLoop=1;jettySize=auto;html=1;entryX=1.007;entryY=0.771;entryDx=0;entryDy=0;entryPerimeter=0;" edge="1" parent="1" source="4lUtc1iOgKgDYd8cMn-Z-8" target="4lUtc1iOgKgDYd8cMn-Z-1">
          <mxGeometry relative="1" as="geometry" />
        </mxCell>
        <mxCell id="4lUtc1iOgKgDYd8cMn-Z-12" style="edgeStyle=orthogonalEdgeStyle;rounded=0;orthogonalLoop=1;jettySize=auto;html=1;entryX=1.007;entryY=0.231;entryDx=0;entryDy=0;entryPerimeter=0;" edge="1" parent="1" source="4lUtc1iOgKgDYd8cMn-Z-7" target="4lUtc1iOgKgDYd8cMn-Z-1">
          <mxGeometry relative="1" as="geometry">
            <mxPoint x="650" y="180" as="targetPoint" />
          </mxGeometry>
        </mxCell>
        <mxCell id="4lUtc1iOgKgDYd8cMn-Z-13" value="&lt;font style=&quot;font-size: 18px;&quot;&gt;Kadai-Connector&lt;/font&gt;" style="rounded=1;whiteSpace=wrap;html=1;shadow=1;" vertex="1" parent="1">
          <mxGeometry x="485" y="300" width="130" height="60" as="geometry" />
        </mxCell>
        <mxCell id="4lUtc1iOgKgDYd8cMn-Z-17" value="&lt;span style=&quot;font-size: 22px;&quot;&gt;Kadai&lt;/span&gt;" style="rounded=1;whiteSpace=wrap;html=1;shadow=1;" vertex="1" parent="1">
          <mxGeometry x="460" y="470" width="180" height="80" as="geometry" />
        </mxCell>
        <mxCell id="4lUtc1iOgKgDYd8cMn-Z-19" value="" style="endArrow=classic;startArrow=classic;html=1;rounded=0;exitX=0.5;exitY=0;exitDx=0;exitDy=0;entryX=0.5;entryY=1;entryDx=0;entryDy=0;" edge="1" parent="1" source="4lUtc1iOgKgDYd8cMn-Z-17" target="4lUtc1iOgKgDYd8cMn-Z-13">
          <mxGeometry width="50" height="50" relative="1" as="geometry">
            <mxPoint x="540" y="320" as="sourcePoint" />
            <mxPoint x="590" y="270" as="targetPoint" />
          </mxGeometry>
        </mxCell>
        <mxCell id="4lUtc1iOgKgDYd8cMn-Z-21" value="&lt;span style=&quot;font-size: 22px;&quot;&gt;Camunda 7&lt;/span&gt;" style="rounded=1;whiteSpace=wrap;html=1;shadow=1;" vertex="1" parent="1">
          <mxGeometry x="20" y="140" width="180" height="80" as="geometry" />
        </mxCell>
        <mxCell id="4lUtc1iOgKgDYd8cMn-Z-22" value="&lt;span style=&quot;font-size: 22px;&quot;&gt;Camunda 8&lt;/span&gt;" style="rounded=1;whiteSpace=wrap;html=1;shadow=1;" vertex="1" parent="1">
          <mxGeometry x="20" y="280" width="180" height="80" as="geometry" />
        </mxCell>
        <mxCell id="4lUtc1iOgKgDYd8cMn-Z-23" value="" style="endArrow=classic;startArrow=classic;html=1;rounded=0;exitX=0;exitY=0.5;exitDx=0;exitDy=0;entryX=1;entryY=0.5;entryDx=0;entryDy=0;" edge="1" parent="1" source="4lUtc1iOgKgDYd8cMn-Z-3" target="4lUtc1iOgKgDYd8cMn-Z-22">
          <mxGeometry width="50" height="50" relative="1" as="geometry">
            <mxPoint x="230" y="460" as="sourcePoint" />
            <mxPoint x="230" y="350" as="targetPoint" />
          </mxGeometry>
        </mxCell>
        <mxCell id="4lUtc1iOgKgDYd8cMn-Z-24" value="" style="endArrow=classic;startArrow=classic;html=1;rounded=0;exitX=0;exitY=0.5;exitDx=0;exitDy=0;entryX=1;entryY=0.5;entryDx=0;entryDy=0;" edge="1" parent="1" source="4lUtc1iOgKgDYd8cMn-Z-2" target="4lUtc1iOgKgDYd8cMn-Z-21">
          <mxGeometry width="50" height="50" relative="1" as="geometry">
            <mxPoint x="310" y="244.8" as="sourcePoint" />
            <mxPoint x="210" y="244.8" as="targetPoint" />
          </mxGeometry>
        </mxCell>
        <mxCell id="4lUtc1iOgKgDYd8cMn-Z-25" value="&lt;span style=&quot;font-size: 22px;&quot;&gt;Your Custom System&lt;/span&gt;" style="rounded=1;whiteSpace=wrap;html=1;shadow=1;" vertex="1" parent="1">
          <mxGeometry x="900" y="140" width="180" height="80" as="geometry" />
        </mxCell>
        <mxCell id="4lUtc1iOgKgDYd8cMn-Z-26" value="&lt;span style=&quot;font-size: 22px;&quot;&gt;Another System&lt;/span&gt;" style="rounded=1;whiteSpace=wrap;html=1;shadow=1;" vertex="1" parent="1">
          <mxGeometry x="900" y="280" width="180" height="80" as="geometry" />
        </mxCell>
        <mxCell id="4lUtc1iOgKgDYd8cMn-Z-27" value="" style="endArrow=classic;startArrow=classic;html=1;rounded=0;exitX=0;exitY=0.5;exitDx=0;exitDy=0;entryX=1;entryY=0.5;entryDx=0;entryDy=0;" edge="1" parent="1" source="4lUtc1iOgKgDYd8cMn-Z-25" target="4lUtc1iOgKgDYd8cMn-Z-7">
          <mxGeometry width="50" height="50" relative="1" as="geometry">
            <mxPoint x="920" y="90" as="sourcePoint" />
            <mxPoint x="820" y="90" as="targetPoint" />
          </mxGeometry>
        </mxCell>
        <mxCell id="4lUtc1iOgKgDYd8cMn-Z-28" value="" style="endArrow=classic;startArrow=classic;html=1;rounded=0;exitX=0;exitY=0.5;exitDx=0;exitDy=0;entryX=1;entryY=0.5;entryDx=0;entryDy=0;" edge="1" parent="1" source="4lUtc1iOgKgDYd8cMn-Z-26" target="4lUtc1iOgKgDYd8cMn-Z-8">
          <mxGeometry width="50" height="50" relative="1" as="geometry">
            <mxPoint x="900" y="329.57" as="sourcePoint" />
            <mxPoint x="800" y="329.57" as="targetPoint" />
          </mxGeometry>
        </mxCell>
        <mxCell id="4lUtc1iOgKgDYd8cMn-Z-29" value="&lt;font style=&quot;font-size: 30px;&quot;&gt;KadaiAdapter&lt;/font&gt;" style="text;html=1;align=center;verticalAlign=middle;whiteSpace=wrap;rounded=0;shadow=1;" vertex="1" parent="1">
          <mxGeometry x="520" y="80" width="60" height="30" as="geometry" />
        </mxCell>
      </root>
    </mxGraphModel>
  </diagram>
</mxfile>
